HIERARCHY
ROOT Hips
{
  OFFSET 53.586 96.2211 8.37905
  CHANNELS 6 Xposition Yposition Zposition Zrotation Xrotation Yrotation
  JOINT spine
  {
    OFFSET 0 8.13249 0.467659
    CHANNELS 3 Zrotation Xrotation Yrotation
    JOINT spine1
    {
      OFFSET 0 10.3498 0
      CHANNELS 3 Zrotation Xrotation Yrotation
      JOINT spine2
      {
        OFFSET 0 9.91699 0
        CHANNELS 3 Zrotation Xrotation Yrotation
        JOINT Neck
        {
          OFFSET 0 25.461 1.2139
          CHANNELS 3 Zrotation Xrotation Yrotation
          JOINT Head
          {
            OFFSET 0 7.69245 0
            CHANNELS 3 Zrotation Xrotation Yrotation
            End Site
            {
              OFFSET 0 18.62 -6.14063
            }
          }
        }
        JOINT RightShoulder
        {
          OFFSET -4.17575 10.7096 -0.581445
          CHANNELS 3 Zrotation Xrotation Yrotation
          JOINT RightArm
          {
            OFFSET 0 14.0466 0
            CHANNELS 3 Zrotation Xrotation Yrotation
            JOINT RightArmRoll
            {
              OFFSET 0 7.09098 0
              CHANNELS 3 Zrotation Xrotation Yrotation
              JOINT RightForeArm
              {
                OFFSET 0 20.6535 0
                CHANNELS 3 Zrotation Xrotation Yrotation
                JOINT RightForeArmRoll
                {
                  OFFSET 0 7.95718 0
                  CHANNELS 3 Zrotation Xrotation Yrotation
                  JOINT RightHand
                  {
                    OFFSET 0 15.9683 0
                    CHANNELS 3 Zrotation Xrotation Yrotation
                    End Site
                    {
                      OFFSET 0 0 0
                    }
                  }
                }
              }
            }
          }
        }
        JOINT LeftShoulder
        {
          OFFSET 4.17575 10.7096 -0.581445
          CHANNELS 3 Zrotation Xrotation Yrotation
          JOINT LeftArm
          {
            OFFSET 0 14.0466 0
            CHANNELS 3 Zrotation Xrotation Yrotation
            JOINT LeftArmRoll
            {
              OFFSET 0 7.09098 0
              CHANNELS 3 Zrotation Xrotation Yrotation
              JOINT LeftForeArm
              {
                OFFSET 0 20.6535 0
                CHANNELS 3 Zrotation Xrotation Yrotation
                JOINT LeftForeArmRoll
                {
                  OFFSET 0 7.95718 0
                  CHANNELS 3 Zrotation Xrotation Yrotation
                  JOINT LeftHand
                  {
                    OFFSET 0 15.9683 0
                    CHANNELS 3 Zrotation Xrotation Yrotation
                    End Site
                    {
                      OFFSET 0 0 0
                    }
                  }
                }
              }
            }
          }
        }
      }
    }
  }
  JOINT RightUpLeg
  {
    OFFSET -7.20834 -1.32182 -1.10884
    CHANNELS 3 Zrotation Xrotation Yrotation
    JOINT RightUpLegRoll
    {
      OFFSET 0 18.7238 0
      CHANNELS 3 Zrotation Xrotation Yrotation
      JOINT RightLeg
      {
        OFFSET 0 -23.1866 0
        CHANNELS 3 Zrotation Xrotation Yrotation
        JOINT RightLegRoll
        {
          OFFSET 0 23.2624 0
          CHANNELS 3 Zrotation Xrotation Yrotation
          JOINT RightFoot
          {
            OFFSET 0 19.3621 0
            CHANNELS 3 Zrotation Xrotation Yrotation
            JOINT RightToeBase
            {
              OFFSET 0 16.1857 0
              CHANNELS 3 Zrotation Xrotation Yrotation
              End Site
              {
                OFFSET 0.00686052 7.83863 -0.903522
              }
            }
          }
        }
      }
    }
  }
  JOINT LeftUpLeg
  {
    OFFSET 7.20834 -1.32182 -1.10884
    CHANNELS 3 Zrotation Xrotation Yrotation
    JOINT LeftUpLegRoll
    {
      OFFSET 0 18.7239 0
      CHANNELS 3 Zrotation Xrotation Yrotation
      JOINT LeftLeg
      {
        OFFSET 0 23.1865 0
        CHANNELS 3 Zrotation Xrotation Yrotation
        JOINT LeftLegRoll
        {
          OFFSET 0 23.4775 0
          CHANNELS 3 Zrotation Xrotation Yrotation
          JOINT LeftFoot
          {
            OFFSET 0 19.147 0
            CHANNELS 3 Zrotation Xrotation Yrotation
            JOINT LeftToeBase
            {
              OFFSET 0 16.1857 0
              CHANNELS 3 Zrotation Xrotation Yrotation
              End Site
              {
                OFFSET -0.0307459 7.83863 -0.903522
              }
            }
          }
        }
      }
    }
  }
}
MOTION
Frames: 8
Frame Time: 0.00208333
53.6209 96.2374 7.59992 -0.754677 -3.49927 0.205365 0.322198 -1.70232 0.0875355 0.644783 0.595979 0.143462 0.643445 2.24098 0.132964 -4.36803 14.7415 -5.51069 2.71226 -14.691 -6.06579 26.2946 -15.4546 -12.2769 31.9024 48.762 79.9168 6.99036e-007 -3.07667e-007 -2.98762e-006 -3.19991 63.536 6.36473 -1.5099e-006 4.50416e-007 -3.00483 8.02965 -4.9514 0.697654 -41.143 -13.2774 9.01358 -10.0939 41.0133 -82.7976 6.76359e-006 2.26784e-006 4.87388e-006 0.571501 54.734 -0.416641 8.07534e-006 -1.23684e-007 3.00624 -8.02901 -4.95144 -0.697688 173.699 1.30233 3.22955 180 7.01558e-015 178.97 178.792 10.2699 179.67 1.5948e-006 1.71921e-006 0.0816273 -17.9094 68.5269 19.9552 8.13649 25.2327 -3.48774 -174.808 -0.00924003 -0.998385 4.5067e-006 -1.99009e-005 -1.01072 -1.5088 -11.7641 0.324668 -8.88845e-007 -1.61839e-006 -0.209115 20.3916 71.3814 -22.7244 -8.13654 25.2333 3.48678 
53.6213 96.2396 7.59976 -0.752549 -3.51268 0.208231 0.320635 -1.7041 0.087773 0.642664 0.591768 0.143956 0.64133 2.23677 0.13346 -4.33488 14.7749 -5.5504 2.72192 -14.5913 -6.09786 26.3905 -15.4464 -12.2576 31.9782 48.7354 79.871 6.99036e-007 -3.07667e-007 -2.98762e-006 -3.30607 63.1867 6.39677 -1.5099e-006 4.50416e-007 -3.00483 8.02965 -4.9514 0.697654 -41.2004 -13.2614 8.99688 -10.2787 41.0509 -82.5405 6.76359e-006 2.26784e-006 4.87388e-006 0.647298 54.4551 -0.42579 8.07534e-006 -1.23684e-007 3.00624 -8.02901 -4.95144 -0.697688 173.696 1.28582 3.23345 180 7.01558e-015 178.97 178.789 10.264 179.67 1.5948e-006 1.71921e-006 0.0809608 -17.9017 68.5222 19.9495 8.13649 25.2327 -3.48774 -174.809 -0.0232787 -0.999721 4.5067e-006 -1.99009e-005 -1.01089 -1.50944 -11.7615 0.324705 -8.88845e-007 -1.61839e-006 -0.209033 20.3892 71.3794 -22.7215 -8.13654 25.2333 3.48678 
53.6179 96.2408 7.59986 -0.750473 -3.52614 0.211016 0.319076 -1.70592 0.087991 0.64051 0.58746 0.144395 0.63918 2.23247 0.133896 -4.30095 14.8106 -5.59005 2.73141 -14.4929 -6.12975 26.4888 -15.4375 -12.2372 32.0539 48.7079 79.8241 6.99036e-007 -3.07667e-007 -2.98762e-006 -3.41112 62.8328 6.42683 -1.5099e-006 4.50416e-007 -3.00483 8.02965 -4.9514 0.697654 -41.2587 -13.2458 8.98041 -10.4649 41.0882 -82.282 6.76359e-006 2.26784e-006 4.87388e-006 0.722501 54.1723 -0.434216 8.07534e-006 -1.23684e-007 3.00624 -8.02901 -4.95144 -0.697688 173.692 1.2693 3.23737 180 7.01558e-015 178.97 178.786 10.2583 179.671 1.5948e-006 1.71921e-006 0.0802937 -17.8941 68.5175 19.9439 8.13649 25.2327 -3.48774 -174.811 -0.0372873 -1.00095 4.5067e-006 -1.99009e-005 -1.01108 -1.50997 -11.7591 0.324759 -8.88845e-007 -1.61839e-006 -0.208954 20.387 71.3776 -22.7187 -8.13654 25.2333 3.48678 
53.6187 96.2436 7.59719 -0.748503 -3.53962 0.213692 0.317551 -1.70778 0.088168 0.638361 0.583095 0.14475 0.637035 2.2281 0.134241 -4.26648 14.8485 -5.6293 2.74087 -14.396 -6.16114 26.589 -15.428 -12.2161 32.1301 48.6802 79.7751 6.99036e-007 -3.07667e-007 -2.98762e-006 -3.51463 62.4748 6.45447 -1.5099e-006 4.50416e-007 -3.00483 8.02965 -4.9514 0.697654 -41.3177 -13.2304 8.96414 -10.6525 41.1248 -82.0223 6.76359e-006 2.26784e-006 4.87388e-006 0.796982 53.8859 -0.44191 8.07534e-006 -1.23684e-007 3.00625 -8.02901 -4.95144 -0.697688 173.689 1.2528 3.24127 180 7.01558e-015 178.97 178.782 10.2525 179.672 1.5948e-006 1.71921e-006 0.0796296 -17.8864 68.5127 19.9383 8.13649 25.2327 -3.48774 -174.812 -0.0511512 -1.00209 4.5067e-006 -1.99009e-005 -1.01126 -1.51037 -11.7571 0.324832 -8.88845e-007 -1.61839e-006 -0.208878 20.3849 71.376 -22.7163 -8.13654 25.2333 3.48678 
53.6106 96.2445 7.5972 -0.746693 -3.55304 0.216228 0.316087 -1.70967 0.0882828 0.636255 0.578709 0.144987 0.634936 2.22372 0.134468 -4.2317 14.8887 -5.66779 2.75046 -14.301 -6.19169 26.6905 -15.4182 -12.1944 32.2075 48.653 79.7227 6.99036e-007 -3.07667e-007 -2.98762e-006 -3.61615 62.1131 6.47924 -1.5099e-006 4.50416e-007 -3.00484 8.02965 -4.9514 0.697654 -41.3775 -13.2152 8.94808 -10.8416 41.1605 -81.7616 6.76359e-006 2.26784e-006 4.87388e-006 0.870614 53.5961 -0.448864 8.07534e-006 -1.23684e-007 3.00625 -8.02901 -4.95144 -0.697688 173.686 1.23637 3.24511 180 7.01557e-015 178.97 178.779 10.2466 179.673 1.5948e-006 1.71921e-006 0.0789716 -17.8789 68.5079 19.9328 8.13649 25.2327 -3.48774 -174.814 -0.0647555 -1.00314 4.5067e-006 -1.99009e-005 -1.01145 -1.51063 -11.7554 0.324927 -8.88845e-007 -1.61839e-006 -0.208806 20.3831 71.3746 -22.7141 -8.13654 25.2333 3.48678 
53.6111 96.2444 7.5949 -0.745095 -3.56636 0.218595 0.314712 -1.71158 0.0883141 0.634235 0.574343 0.145076 0.632922 2.21936 0.134545 -4.19687 14.931 -5.70517 2.76034 -14.2079 -6.22105 26.7926 -15.4081 -12.1724 32.2867 48.627 79.6657 6.99036e-007 -3.07667e-007 -2.98762e-006 -3.7153 61.7484 6.50075 -1.5099e-006 4.50416e-007 -3.00484 8.02965 -4.9514 0.697654 -41.4379 -13.2002 8.9322 -11.0322 41.1949 -81.5003 6.76359e-006 2.26784e-006 4.87388e-006 0.943271 53.303 -0.455069 8.07534e-006 -1.23684e-007 3.00625 -8.02901 -4.95144 -0.697688 173.684 1.22004 3.24885 180 7.01557e-015 178.969 178.776 10.2406 179.673 1.5948e-006 1.71921e-006 0.0783233 -17.8714 68.503 19.9273 8.13649 25.2327 -3.48774 -174.815 -0.0779856 -1.00413 4.5067e-006 -1.99009e-005 -1.01165 -1.51073 -11.7543 0.325043 -8.88845e-007 -1.61839e-006 -0.208737 20.3815 71.3734 -22.7123 -8.13654 25.2333 3.48678 
53.625 96.2452 7.59392 -0.743764 -3.57952 0.220763 0.313454 -1.7135 0.0882405 0.632338 0.570036 0.144984 0.631034 2.21505 0.134446 -4.16222 14.9755 -5.74107 2.77067 -14.1171 -6.2489 26.8946 -15.3979 -12.1504 32.3685 48.603 79.6027 6.99036e-007 -3.07667e-007 -2.98762e-006 -3.8117 61.3812 6.51862 -1.5099e-006 4.50416e-007 -3.00484 8.02965 -4.9514 0.697654 -41.4988 -13.1853 8.9165 -11.2245 41.2278 -81.2385 6.76359e-006 2.26784e-006 4.87388e-006 1.01483 53.0069 -0.460519 8.07534e-006 -1.23684e-007 3.00625 -8.02901 -4.95144 -0.697688 173.681 1.20387 3.25245 180 7.01557e-015 178.969 178.772 10.2344 179.674 1.5948e-006 1.71921e-006 0.0776878 -17.864 68.4979 19.9218 8.13649 25.2327 -3.48774 -174.817 -0.0907267 -1.00505 4.5067e-006 -1.99009e-005 -1.01184 -1.51065 -11.7539 0.325183 -8.88845e-007 -1.61839e-006 -0.208672 20.3803 71.3725 -22.7108 -8.13654 25.2333 3.48678 
53.6206 96.2442 7.59209 -0.742753 -3.59246 0.222703 0.31234 -1.71543 0.0880407 0.630606 0.565824 0.144681 0.629311 2.21084 0.134139 -4.12801 15.0221 -5.77515 2.78158 -14.0287 -6.2749 26.9959 -15.3877 -12.1287 32.4534 48.5816 79.5326 6.99036e-007 -3.07667e-007 -2.98762e-006 -3.905 61.0119 6.53248 -1.5099e-006 4.50416e-007 -3.00484 8.02965 -4.9514 0.697654 -41.5601 -13.1707 8.90096 -11.4183 41.2588 -80.9766 6.76359e-006 2.26784e-006 4.87388e-006 1.08517 52.7079 -0.465207 8.07534e-006 -1.23684e-007 3.00625 -8.02901 -4.95144 -0.697688 173.679 1.18788 3.25587 180 7.01557e-015 178.969 178.769 10.2278 179.675 1.5948e-006 1.71921e-006 0.0770687 -17.8567 68.4926 19.9164 8.13649 25.2327 -3.48774 -174.817 -0.102864 -1.00594 4.5067e-006 -1.99009e-005 -1.01204 -1.51039 -11.7541 0.325348 -8.88845e-007 -1.61839e-006 -0.208611 20.3793 71.3719 -22.7098 -8.13654 25.2333 3.48678 
